<svg width="260" height="472" viewBox="0 0 260 472" fill="none" xmlns="http://www.w3.org/2000/svg">
<path fill-rule="evenodd" clip-rule="evenodd" d="M26.1416 0.498363C77.2847 -1.33019 133.099 0.36269 173.187 32.173C212.376 63.2701 219.191 118.198 234.495 165.828C248.069 208.075 264.715 250.464 257.387 294.228C250.144 337.486 223.664 374.114 194.182 406.588C165.229 438.479 126.736 456.026 90.0308 478.567C39.1502 509.812 -4.93149 578.479 -62.9829 564.51C-120.131 550.758 -135.285 474.059 -156.502 419.242C-172.563 377.748 -170.05 333.61 -169.573 289.119C-169.166 251.195 -162.216 215.756 -153.923 178.747C-143.363 131.625 -148.617 76.4251 -114.298 42.4516C-78.8583 7.36922 -23.6939 2.28016 26.1416 0.498363Z" fill="#CD9400"/>
</svg>
