<svg width="321" height="46" viewBox="0 0 321 46" fill="none" xmlns="http://www.w3.org/2000/svg">
<g clip-path="url(#clip0_93_2792)">
<path d="M6.96453 18.4722C9.47777 18.4722 12.1107 18.2798 14.6239 18.0873C15.701 18.0873 16.6585 17.8949 17.7356 17.8949C22.2833 17.5101 26.8311 17.1252 31.3789 16.7404C36.8841 16.3556 42.2696 15.7783 47.7748 15.3935C55.5539 14.6238 63.3329 14.0465 71.112 13.2769C72.9072 13.0845 74.7024 13.0845 76.4975 12.892C81.0453 12.5072 85.5931 12.1224 90.1408 11.9299C94.6886 11.5451 99.2364 11.1603 103.784 10.9679C105.579 10.7754 107.374 10.583 109.17 10.583C116.35 10.1982 123.651 9.81334 130.831 9.4285C135.26 9.23609 139.688 9.04367 144.235 8.65883C146.031 8.65883 147.706 8.46641 149.501 8.46641C156.443 8.27399 163.504 8.08157 170.445 7.88916C177.386 7.69674 184.208 7.50432 191.149 7.3119C192.944 7.3119 194.74 7.3119 196.654 7.3119C201.202 7.3119 205.63 7.3119 210.178 7.3119C217.239 7.3119 224.18 7.3119 231.241 7.11948C233.515 7.11948 235.789 7.11948 238.063 7.11948C242.85 7.11948 247.637 7.11948 252.424 7.11948C252.783 7.11948 253.262 7.11948 253.621 7.11948C242.85 7.3119 231.959 7.50432 221.188 7.88916C216.641 8.08157 212.213 8.08157 207.665 8.27399C205.75 8.27399 203.715 8.27399 201.801 8.46641C195.218 8.65883 188.756 9.04367 182.173 9.23609C174.634 9.62092 167.094 9.81334 159.554 10.1982C158.238 10.1982 157.041 10.3906 155.724 10.3906C151.655 10.7754 147.706 10.9679 143.637 11.3527C135.499 11.9299 127.361 12.5072 119.223 13.0845C118.026 13.0845 116.829 13.2769 115.632 13.4693C111.683 13.8541 107.614 14.4314 103.664 14.8162C96.4838 15.5859 89.4228 16.3556 82.2421 17.1252C80.3272 17.3177 78.2927 17.7025 76.3779 17.8949C71.8301 18.4722 67.2823 19.0494 62.7345 19.8191C56.99 20.5888 51.1258 21.3584 45.3812 22.1281C37.3628 23.2826 29.2247 24.4371 21.2062 25.5917C19.2914 25.7841 17.3765 26.1689 15.342 26.3613C11.8713 26.9386 8.40067 27.5158 4.93 28.0931C4.57097 28.0931 4.21193 28.4779 4.21193 29.2476C4.21193 29.8249 4.57097 30.4021 4.93 30.4021C6.24646 30.4021 7.44324 30.5945 8.7597 30.5945C8.52034 31.5566 8.40067 32.1339 8.40067 32.7111C8.40067 34.8277 9.47777 36.7519 10.9139 36.7519C20.8472 35.7898 30.6608 34.6353 40.5941 33.8656C49.2109 33.2884 57.8277 32.5187 66.4446 31.9415C75.8991 31.1718 85.4734 30.4021 94.928 29.8249C97.9199 29.6324 100.912 29.44 103.904 29.0552C104.742 29.0552 105.579 28.8628 106.537 28.8628C121.856 28.2855 137.174 27.5158 152.493 26.9386C160.631 26.5537 168.889 26.1689 177.027 25.9765C180.019 25.7841 182.891 25.7841 185.883 25.5917C201.561 25.2068 217.239 24.822 232.917 24.4371C239.619 24.2447 246.321 24.0523 253.023 23.8599C258.767 23.6675 264.512 23.6675 270.256 23.2826C275.044 23.0902 279.711 22.7054 284.498 22.513C286.892 22.3205 289.285 22.3205 291.559 22.1281C296.945 21.5509 302.33 20.9736 307.716 20.3964C307.357 21.166 307.357 22.3205 307.476 23.0902C307.596 24.0523 307.955 24.822 308.553 25.2068C309.032 25.5917 309.75 25.9765 310.229 25.5917C311.426 24.822 312.623 24.0523 313.7 23.2826C313.7 23.2826 313.7 23.2826 313.58 23.2826C313.7 23.2826 313.7 23.0902 313.819 23.0902C313.939 23.0902 314.059 22.8978 314.059 22.8978H313.939C314.537 22.513 315.136 22.1281 315.854 21.5509C316.452 21.166 317.17 20.5888 317.769 20.2039C318.487 19.6267 319.085 19.0494 319.803 18.4722C320.521 17.8949 321 16.3556 321 15.0086C321 14.239 320.88 13.6617 320.641 12.892C320.402 12.1224 319.803 11.1603 319.205 10.9679C318.606 10.7754 318.008 10.583 317.41 10.583C317.29 10.583 317.17 10.583 317.051 10.583C316.692 10.583 316.213 10.583 315.854 10.7754C314.896 10.9679 314.059 11.1603 313.101 11.1603C312.383 11.1603 311.665 11.3527 310.827 11.3527C308.793 11.5451 306.878 11.7375 304.843 12.1224C304.365 12.1224 303.766 12.3148 303.288 12.3148C303.527 11.9299 303.647 11.5451 303.647 11.1603C303.766 10.7754 303.766 10.3906 303.766 10.0058C303.766 9.81334 303.766 9.4285 303.886 9.23609C303.886 8.85125 303.886 8.46641 303.766 8.27399C303.766 8.27399 303.886 8.27399 303.886 8.08157C304.245 7.69674 304.604 7.3119 304.843 6.54223C305.083 5.96497 305.202 5.1953 305.202 4.42562C305.202 3.65595 305.083 3.0787 304.843 2.30902C304.724 2.1166 304.604 1.73177 304.484 1.53935C304.125 0.962092 303.766 0.769674 303.407 0.577255C302.689 0.192418 301.851 0 301.014 0C300.296 0 299.697 0 298.979 0C298.022 0 297.064 0 296.107 0C294.79 0 293.354 0 292.038 0C288.448 0 284.857 0 281.267 0C277.916 0 274.445 0 271.094 0C267.983 0 264.991 0 261.879 0C249.552 0 237.345 0.192418 225.018 0.384837C215.803 0.577255 206.588 0.769674 197.372 0.769674C193.303 0.769674 189.115 0.962092 185.046 1.15451C175.83 1.53935 166.615 1.73177 157.4 2.1166C154.767 2.1166 152.134 2.30902 149.501 2.30902C147.945 2.30902 146.509 2.50144 144.953 2.50144C135.858 3.0787 126.762 3.65595 117.667 4.23321C114.914 4.42562 112.162 4.61804 109.289 4.81046C107.734 4.81046 106.178 5.00288 104.622 5.1953C95.5264 5.96497 86.5505 6.73465 77.455 7.50432C72.7875 7.88916 68.1201 8.27399 63.4526 8.85125C55.4342 9.62092 47.4157 10.3906 39.517 11.3527C32.5757 12.1224 25.6343 12.6996 18.693 13.2769C17.6159 13.4693 16.5388 13.4693 15.342 13.6617C13.5468 13.8541 11.7517 13.8541 9.95648 14.0465C8.40067 14.8162 6.72517 14.8162 5.16936 14.8162C5.04968 14.0465 4.57097 13.4693 4.21193 13.6617C3.13483 13.6617 2.1774 13.8541 1.1003 14.0465C0.621586 14.239 0.142874 14.6238 0.0231954 15.3935C-0.0964828 16.3556 0.262552 17.3177 0.741264 17.5101C1.21998 17.7025 1.69869 17.8949 2.1774 18.0873C2.65611 18.2798 3.01515 18.2798 3.49386 18.2798C4.69064 18.4722 5.76775 18.4722 6.96453 18.4722ZM287.011 12.3148C288.448 12.3148 290.003 12.3148 291.439 12.3148C291.559 12.892 291.799 13.2769 292.038 13.6617C291.439 13.6617 290.841 13.8541 290.362 13.8541C289.285 13.8541 288.208 14.0465 287.131 14.0465C282.344 14.239 277.677 14.6238 272.889 14.8162C270.735 15.0086 268.581 15.2011 266.427 15.2011C263.076 15.2011 259.605 15.3935 256.254 15.3935C248.475 15.5859 240.816 15.7783 233.037 15.9707C217.957 16.3556 202.997 16.7404 187.918 17.1252C177.147 17.3177 166.376 17.8949 155.605 18.4722C139.448 19.2418 123.172 19.8191 107.015 20.5888C103.784 20.7812 100.553 20.9736 97.3215 21.3584C88.1063 22.1281 78.8911 22.7054 69.6759 23.4751C60.7 24.2447 51.6045 24.822 42.6286 25.5917C41.7909 25.5917 40.9531 25.7841 40.1154 25.7841C42.5089 25.3992 45.0222 25.2068 47.4157 24.822C55.9129 23.8599 64.41 22.7054 72.9072 21.7433C75.8991 21.3584 78.8911 20.9736 81.7634 20.5888C83.3192 20.3964 84.875 20.2039 86.3111 20.2039C95.287 19.4343 104.143 18.4722 112.999 17.7025C114.675 17.5101 116.47 17.3177 118.146 17.1252C120.659 16.9328 123.172 16.7404 125.566 16.7404C134.661 16.1631 143.757 15.5859 152.852 15.0086C154.887 14.8162 156.921 14.8162 158.836 14.6238C159.315 14.6238 159.913 14.6238 160.392 14.6238C161.828 14.6238 163.264 14.6238 164.581 14.4314C173.676 14.0465 182.891 13.8541 191.987 13.4693C196.176 13.2769 200.364 13.0845 204.553 13.0845C218.077 12.892 231.72 12.6996 245.244 12.5072C259.366 12.5072 273.248 12.3148 287.011 12.3148Z" fill="black"/>
<path d="M24.8944 45.3992C25.2562 45.3992 25.5495 44.9152 25.5495 44.3182C25.5495 43.7213 25.2562 43.2373 24.8944 43.2373C24.5326 43.2373 24.2393 43.7213 24.2393 44.3182C24.2393 44.9152 24.5326 45.3992 24.8944 45.3992Z" fill="black"/>
</g>
<defs>
<clipPath id="clip0_93_2792">
<rect width="321" height="45.3994" fill="white"/>
</clipPath>
</defs>
</svg>
