<svg width="1058" height="872" viewBox="0 0 1058 872" fill="none" xmlns="http://www.w3.org/2000/svg">
<g clip-path="url(#clip0_296_8)">
<rect width="1004" height="651" transform="translate(26 27)" fill="#FFC100"/>
<path d="M613.749 731.137L528 585.106L575.638 560.444C582.452 556.821 588.073 551.501 591.883 545.067C595.693 538.632 597.545 531.334 597.234 523.973C596.76 515.659 596.76 507.327 597.234 499.012C597.849 491.702 596.288 484.376 592.726 477.855C589.163 471.334 583.741 465.876 577.067 462.093L530.7 435.638L622.165 292.596L668.692 319.052C675.328 322.9 682.969 324.938 690.764 324.938C698.558 324.938 706.2 322.9 712.836 319.052C720.299 314.582 728.041 310.539 736.02 306.945C743.101 303.805 749.111 298.868 753.375 292.689C757.639 286.511 759.987 279.335 760.157 271.969L761.11 221L938.482 224.139L937.371 275.407C937.305 282.749 939.409 289.963 943.447 296.245C947.484 302.527 953.297 307.628 960.237 310.98L971.512 317.108C975.323 319.201 978.975 321.443 982.627 323.685C989.001 327.887 996.491 330.336 1004.26 330.758C1012.03 331.181 1019.77 329.56 1026.61 326.077L1074.25 301.265L1160 447.296L1112.36 472.108C1105.56 475.705 1099.95 481 1096.13 487.408C1092.32 493.817 1090.47 501.091 1090.77 508.429C1091.24 516.743 1091.24 525.075 1090.77 533.39C1090.17 540.697 1091.74 548.017 1095.3 554.535C1098.86 561.053 1104.27 566.514 1110.93 570.309L1157.46 596.765L1065.83 739.806L1019.31 713.351C1012.67 709.502 1005.03 707.464 997.236 707.464C989.442 707.464 981.8 709.502 975.164 713.351C967.717 717.715 960.032 721.706 952.139 725.308C945.058 728.448 939.047 733.385 934.783 739.564C930.519 745.742 928.171 752.918 928.002 760.284L926.89 811.402L749.518 808.263L750.629 756.996C750.702 749.672 748.599 742.475 744.559 736.216C740.519 729.957 734.702 724.885 727.763 721.571L716.33 715.443L705.373 708.717C698.96 704.525 691.435 702.096 683.639 701.7C675.843 701.304 668.083 702.957 661.228 706.475L613.749 731.137ZM769.208 633.086C793.828 647.034 822.289 653.797 850.993 652.52C879.696 651.243 907.352 641.983 930.465 625.912C953.578 609.841 971.109 587.68 980.842 562.23C990.574 536.781 992.072 509.187 985.144 482.937C978.216 456.687 963.176 432.96 941.922 414.756C920.669 396.552 894.159 384.688 865.743 380.665C837.328 376.642 808.283 380.641 782.281 392.155C756.279 403.67 734.489 422.182 719.664 445.353C699.824 476.441 693.897 513.668 703.186 548.865C712.474 584.061 736.219 614.351 769.208 633.086V633.086Z" fill="#F0B600"/>
</g>
<path d="M808.033 837.1H604.572V761.528C604.572 751.897 596.764 744.089 587.132 744.089C577.501 744.089 569.693 751.897 569.693 761.528V837.1H488.308V761.528C488.308 751.897 480.5 744.089 470.868 744.089C461.237 744.089 453.429 751.897 453.429 761.528V837.1H249.967C240.336 837.1 232.528 844.908 232.528 854.539C232.528 864.171 240.336 871.979 249.967 871.979H808.033C817.665 871.979 825.473 864.171 825.473 854.539C825.473 844.908 817.665 837.1 808.033 837.1Z" fill="white"/>
<path d="M1017.31 0H40.6923C18.2557 0 0 18.2557 0 40.6923V668.516C0 690.953 18.2557 709.209 40.6923 709.209H813.846V715.022C813.846 724.653 821.654 732.462 831.286 732.462C840.917 732.462 848.725 724.653 848.725 715.022V709.209H883.604V715.022C883.604 724.653 891.413 732.462 901.044 732.462C910.675 732.462 918.484 724.653 918.484 715.022V709.209H953.363V715.022C953.363 724.653 961.171 732.462 970.802 732.462C980.433 732.462 988.242 724.653 988.242 715.022V709.209H1017.31C1039.74 709.209 1058 690.953 1058 668.516V40.6923C1058 18.2557 1039.74 0 1017.31 0ZM1023.12 668.516C1023.12 671.667 1020.46 674.33 1017.31 674.33H40.6923C37.5416 674.33 34.8791 671.667 34.8791 668.516V40.6923C34.8791 37.5416 37.5416 34.8791 40.6923 34.8791H1017.31C1020.46 34.8791 1023.12 37.5416 1023.12 40.6923V668.516Z" fill="white"/>
<defs>
<clipPath id="clip0_296_8">
<rect width="1004" height="651" fill="white" transform="translate(26 27)"/>
</clipPath>
</defs>
</svg>
