<svg width="696" height="896" viewBox="0 0 696 896" fill="none" xmlns="http://www.w3.org/2000/svg">
<rect x="270" y="741" width="163" height="104" fill="#FFC100"/>
<rect x="58" y="66" width="585" height="658" fill="#FFC100"/>
<path d="M55.2902 0C24.74 0 0 24.74 0 55.2902V839.1C0 870.118 25.2086 895.327 56.2274 895.327H639.773C670.793 895.327 696 870.118 696 839.1V55.2902C696 24.74 671.262 0 640.71 0H55.2902ZM348.046 839.756C326.118 839.756 308.406 822.044 308.406 800.116C308.406 778.188 326.117 760.475 348.046 760.475C369.976 760.475 387.686 778.187 387.686 800.116C387.687 822.043 369.976 839.756 348.046 839.756ZM624.873 679.789C624.873 695.345 612.316 707.902 596.76 707.902H99.335C83.7788 707.902 71.2213 695.345 71.2213 679.789V98.3042C71.2213 82.7479 83.7788 70.1905 99.335 70.1905H596.665C612.223 70.1905 624.779 82.7479 624.779 98.3042V679.789H624.873Z" fill="white"/>
</svg>
