<svg width="44" height="44" viewBox="0 0 44 44" fill="none" xmlns="http://www.w3.org/2000/svg">
<path d="M22 23.8334C23.0125 23.8334 23.8333 23.0125 23.8333 22C23.8333 20.9875 23.0125 20.1667 22 20.1667C20.9874 20.1667 20.1666 20.9875 20.1666 22C20.1666 23.0125 20.9874 23.8334 22 23.8334Z" fill="#818181" stroke="#818181" stroke-width="2" stroke-linecap="round" stroke-linejoin="round"/>
<path d="M22 11C23.0125 11 23.8333 10.1792 23.8333 9.16665C23.8333 8.15412 23.0125 7.33331 22 7.33331C20.9874 7.33331 20.1666 8.15412 20.1666 9.16665C20.1666 10.1792 20.9874 11 22 11Z" fill="#818181" stroke="#818181" stroke-width="2" stroke-linecap="round" stroke-linejoin="round"/>
<path d="M22 36.6667C23.0125 36.6667 23.8333 35.8459 23.8333 34.8333C23.8333 33.8208 23.0125 33 22 33C20.9874 33 20.1666 33.8208 20.1666 34.8333C20.1666 35.8459 20.9874 36.6667 22 36.6667Z" fill="#818181" stroke="#818181" stroke-width="2" stroke-linecap="round" stroke-linejoin="round"/>
</svg>
